<?xml version="1.0" standalone="no"?>
<!DOCTYPE svg PUBLIC "-//W3C//DTD SVG 20010904//EN"
 "http://www.w3.org/TR/2001/REC-SVG-20010904/DTD/svg10.dtd">
<svg version="1.0" xmlns="http://www.w3.org/2000/svg"
 width="192.000000pt" height="192.000000pt" viewBox="0 0 192.000000 192.000000"
 preserveAspectRatio="xMidYMid meet">
<metadata>
Created by potrace 1.14, written by Peter Selinger 2001-2017
</metadata>
<g transform="translate(0.000000,192.000000) scale(0.100000,-0.100000)"
fill="#000000" stroke="none">
<path d="M136 1805 c-27 -13 -33 -66 -11 -85 12 -10 49 -14 131 -13 77 0 114
-3 115 -11 0 -6 2 -18 4 -26 2 -8 6 -32 10 -54 4 -21 9 -48 11 -60 3 -11 7
-39 10 -61 3 -22 9 -62 14 -90 6 -27 12 -67 16 -89 3 -21 8 -48 10 -60 13 -67
74 -437 74 -453 0 -10 -12 -24 -29 -31 -71 -31 -121 -120 -116 -203 5 -77 65
-157 135 -180 51 -17 51 -17 36 -53 -27 -64 -4 -166 48 -218 99 -97 255 -81
333 36 28 42 36 115 21 186 l-8 35 163 -1 c89 -1 172 -2 183 -3 21 -1 21 -2 6
-43 -43 -121 56 -265 187 -273 147 -9 263 141 216 278 -7 21 -10 37 -6 38 3 0
28 2 55 4 51 4 66 15 66 52 0 55 20 53 -637 53 -670 0 -660 -1 -682 62 -15 41
-14 54 5 93 28 59 24 58 630 59 541 1 553 1 568 21 9 11 16 29 16 40 1 11 3
29 5 40 2 11 7 40 11 65 4 25 8 50 9 55 2 6 10 55 19 110 17 107 21 129 37
215 5 30 12 82 16 114 5 50 3 61 -13 73 -14 10 -136 13 -640 13 -410 0 -625 3
-629 10 -5 9 -24 115 -52 290 -11 71 -16 73 -175 74 -79 1 -151 -4 -162 -9z"/>
</g>
</svg>
